<svg width="36" height="36" viewBox="0 0 36 36" fill="none" xmlns="http://www.w3.org/2000/svg">
<path d="M18 0.0859375C8.0588 0.0859375 0 7.97385 0 17.7043C0 27.4347 8.0588 35.3226 18 35.3226C27.9412 35.3226 36 27.4347 36 17.7043C36 7.97385 27.9412 0.0859375 18 0.0859375Z" fill="#40B3E0"/>
<path d="M26.7585 10.2206L23.5434 26.0866C23.5434 26.0866 23.0939 27.1869 21.8573 26.6588L14.4383 21.0914L11.7405 19.8151L7.19917 18.3187C7.19917 18.3187 6.50224 18.0767 6.43474 17.5486C6.36724 17.0204 7.22167 16.7344 7.22167 16.7344L25.2745 9.80273C25.2745 9.80273 26.7584 9.16462 26.7584 10.2209" fill="white"/>
<path d="M13.8682 25.9081C13.8682 25.9081 13.6516 25.8883 13.3816 25.052C13.112 24.2158 11.7405 19.8148 11.7405 19.8148L22.6443 13.0373C22.6443 13.0373 23.2739 12.6632 23.2514 13.0373C23.2514 13.0373 23.3637 13.1034 23.0264 13.4114C22.6893 13.7196 14.4609 20.9592 14.4609 20.9592" fill="#D2E5F1"/>
<path d="M17.283 23.2258L14.3485 25.8445C14.3485 25.8445 14.119 26.0149 13.8682 25.9081L14.4301 21.0439" fill="#B5CFE4"/>
</svg>
