<svg width="36" height="37" viewBox="0 0 36 37" fill="none" xmlns="http://www.w3.org/2000/svg">
<path d="M9.45425 31.377L10.0428 31.6627C12.4952 33.0912 15.2417 33.7578 17.9884 33.7578C26.6205 33.7578 33.6831 26.901 33.6831 18.5204C33.6831 14.5206 32.0155 10.616 29.0728 7.75893C26.13 4.90187 22.2062 3.28296 17.9884 3.28296C9.35623 3.28296 2.29345 10.1398 2.39161 18.6157C2.39161 21.4726 3.27444 24.2345 4.74577 26.6152L5.13811 27.1867L3.56876 32.8056L9.45425 31.377Z" fill="#00E676"/>
<path d="M30.801 6.10467C27.4659 2.77154 22.8556 0.962036 18.1471 0.962036C8.14178 0.962036 0.0981547 8.86644 0.196169 18.4851C0.196169 21.5326 1.079 24.4849 2.55048 27.1514L0 36.1987L9.51496 33.8178C12.1635 35.2464 15.1061 35.9131 18.0491 35.9131C27.9564 35.9131 36 28.0085 36 18.39C36 13.7235 34.136 9.34264 30.801 6.10467ZM18.1471 32.9608C15.4986 32.9608 12.8501 32.2943 10.594 30.961L10.0055 30.6753L4.31614 32.1037L5.78747 26.6755L5.39513 26.104C1.079 19.3424 3.13898 10.3902 10.2016 6.19983C17.2643 2.00959 26.3869 4.00955 30.703 10.8664C35.019 17.7232 32.959 26.5801 25.8965 30.7704C23.6402 32.1989 20.8937 32.9607 18.1471 32.9607V32.9608ZM26.7792 22.39L25.7002 21.9138C25.7002 21.9138 24.1309 21.2471 23.1499 20.7709C23.0517 20.7709 22.9537 20.6756 22.8556 20.6756C22.5612 20.6756 22.3651 20.7709 22.1689 20.8662C22.1689 20.8662 22.0709 20.9614 20.6976 22.4851C20.5994 22.6756 20.4032 22.7709 20.2071 22.7709H20.1089C20.0109 22.7709 19.8147 22.6756 19.7166 22.5804L19.2261 22.39C18.1471 21.9138 17.1662 21.3423 16.3814 20.5804C16.1853 20.39 15.8909 20.1995 15.6948 20.0091C15.0081 19.3424 14.3214 18.5805 13.8311 17.7234L13.7329 17.5329C13.6349 17.4376 13.6349 17.3425 13.5368 17.152C13.5368 16.9616 13.5368 16.7711 13.6349 16.6758C13.6349 16.6758 14.0273 16.1996 14.3214 15.914C14.5178 15.7234 14.6158 15.4378 14.8119 15.2474C15.0081 14.9616 15.1063 14.5807 15.0081 14.295C14.9101 13.8188 13.7329 11.2474 13.4388 10.6761C13.2424 10.3903 13.0464 10.2952 12.7521 10.1999H11.6731C11.4768 10.1999 11.2808 10.2952 11.0845 10.2952L10.9863 10.3903C10.7901 10.4856 10.594 10.6761 10.3978 10.7712C10.2016 10.9618 10.1035 11.1521 9.9073 11.3427C9.22064 12.1998 8.8283 13.2474 8.8283 14.295C8.8283 15.0568 9.02447 15.8187 9.31879 16.4854L9.41695 16.7711C10.2998 18.5805 11.4768 20.1995 13.0464 21.628L13.4388 22.0089C13.7329 22.2947 14.0273 22.4851 14.2234 22.7707C16.2834 24.4851 18.6376 25.7231 21.2861 26.3897C21.5804 26.4849 21.9727 26.4849 22.2671 26.5802H23.2479C23.7384 26.5802 24.3269 26.3897 24.7194 26.1993C25.0136 26.0088 25.2097 26.0088 25.4059 25.8184L25.6022 25.6278C25.7984 25.4373 25.9945 25.3422 26.1907 25.1517C26.3869 24.9613 26.5831 24.7708 26.6812 24.5802C26.8774 24.1993 26.9754 23.7231 27.0735 23.2471V22.5804C27.0735 22.5804 26.9754 22.4851 26.7792 22.39Z" fill="white"/>
</svg>
